# xmcd
#
# Track frame offsets:
#       183
#       12828
#       26888
#       39095
#       50780
#       61978
#       72455
#       87243
#       99308
#       112595
#       124110
#       137630
#       150433
#       162545
#       174320
#       187558
#       200143
#       210580
#       223723
#       236625
#
# Disc length: 3334 seconds
#
# Revision: 1
# Processed by: cddbd v1.5PL3 Copyright (c) Steve Scherf et al.
# Submitted via: WhereIsIt 3.56
#
DISCID=0d0d0414
DTITLE=Various Artist - Gospel Greats
DYEAR=1993
DGENRE=Gospel
TTITLE0=Echoes Of Zion - I'm Climbing Higher Mountains
TTITLE1=Swanee Quintet - New Walk
TTITLE2=Angelic Gospel Singers - Tell The Angels
TTITLE3=Lucille Barbee - Let The Church Roll On
TTITLE4=Radio Four - Building A Home
TTITLE5=Madam Ira Mae Littlejohn - Go Devil, Go
TTITLE6=Brother Joe May - Wake Me, Shake Me
TTITLE7=Trumpet Kings - Yea Lord
TTITLE8=Consolers - Lord Bring Me Down
TTITLE9=Radio Four - An Earnest Prayer
TTITLE10=Madam Ira Mae Littlejohn - I Want To See Jesus
TTITLE11=Smith Jubilee Singers - Fadeless Days
TTITLE12=Swanee Quintet - How I Got Over
TTITLE13=Gospel Songbirds - The Bible Is Right
TTITLE14=Sister Lillie Mae Littlefield - Dark Hours Of Distress
TTITLE15=Fairfield Four - No Room At The Inn
TTITLE16=Rev. C. C. Chapman and The Faith Temple Choir - On My Way (part one)
TTITLE17=Christland Singers - You Got To Be Born Again
TTITLE18=Taylor Brothers - Mother's Advice
TTITLE19=Rev. G. W. Killens with The Mountain Calvary Congregation - Father I S
TTITLE19=tretch My Arms To Thee
EXTD=Cascade Records, UK
EXTT0=
EXTT1=
EXTT2=
EXTT3=
EXTT4=
EXTT5=
EXTT6=
EXTT7=
EXTT8=
EXTT9=
EXTT10=
EXTT11=
EXTT12=
EXTT13=
EXTT14=
EXTT15=
EXTT16=
EXTT17=
EXTT18=
EXTT19=
PLAYORDER=
